<?xml version="1.0" encoding="utf-8"?>
<!-- Generator: Adobe Illustrator 21.0.0, SVG Export Plug-In . SVG Version: 6.00 Build 0)  -->
<svg version="1.1" id="Layer_1" xmlns="http://www.w3.org/2000/svg" xmlns:xlink="http://www.w3.org/1999/xlink" x="0px" y="0px"
	 viewBox="0 0 594 112.6" style="enable-background:new 0 0 594 112.6;" xml:space="preserve">
<style type="text/css">
	.st0{opacity:0.7;fill:#CB705A;}
	.st1{opacity:0.7;fill:#DBBD6A;}
	.st2{opacity:0.7;}
	.st3{fill:#7C7474;}
	.st4{fill:#56514F;}
</style>
<g>
	<g>
		<defs>
			<path id="SVGID_1_" d="M52.8,45.2c-1.6,0-1.6-2.4,0-2.4c3,0,6,0,9,0c-2.8-3.3-5.1-7-6.5-11.2c-0.5-1.5,1.8-2.1,2.4-0.7
				c0.9,2.5,2.1,4.9,3.6,7.1c1.4-1.8,2.8-3.6,4.3-5.3c1.1-1.2,2.8,0.6,1.7,1.7c-1.6,1.8-3.2,3.7-4.6,5.7c5.6,7.2,14,12.5,22.2,16.2
				V21.7c0-1.7-1.1-3.3-2.7-3.9l-0.3-0.1c-24.7-9.5-37.9-9.5-62.7,0l-0.6,0.2c-1.5,0.6-2.4,2-2.4,3.5v78.9c0,2.1,2,3.5,3.9,2.9
				l6.2-1.9c20.4-6.2,30-6.2,50.4,0h0c5.1,1.5,8.1-2.3,8.1-7.6V72.3c-0.1,0-0.2,0.1-0.4,0.1c-7.6,0.5-15.9,1-24.1,0.5
				c-1.5,3.9-6.4,5.4-10.1,6.4c-1.5,0.4-2.2-2-0.7-2.4c2.6-0.7,6.6-1.7,8.2-4.2c-8.5-0.7-16.7-2.4-24-6c-1.4-0.7-0.2-2.8,1.2-2.1
				c3.6,1.8,7.5,3.1,11.5,4c-0.8-2.8-1.7-5.5-2.4-8.3c-0.4-1.5,1.9-2.2,2.4-0.7c0.9,3.2,1.8,6.4,2.8,9.5c11.5,2.2,24.2,1.6,35.2,0.8
				c0.1,0,0.2,0,0.4,0V58.9c-7.4-3.3-15-7.8-20.8-13.7C60.3,45.2,56.5,45.2,52.8,45.2z M71.2,30.6c0.5-3,3.4-5,6.4-4.4l1.4,0.3
				l-0.3,1.4c-0.5,3-3.4,5-6.4,4.4l-0.8-0.1c1.5-0.6,3-1.4,4.4-2.3c0.3-0.2,0.7-0.5,0.2-0.7c-0.5-0.1-1.4,0.5-1.7,0.7
				c-1,0.7-2.2,1.2-3.4,1.5L71.2,30.6z M73,41.5c-1-0.8-1.7-1.8-2.4-2.9l0.8-0.1c3-0.3,5.7,1.9,6,5l0.1,1.4l-1.4,0.1
				c-3,0.3-5.7-1.9-6-5l-0.1-0.8c1,1.3,2.1,2.5,3.4,3.6c0.3,0.2,0.7,0.5,0.7,0C74.2,42.5,73.3,41.8,73,41.5z M63.8,18.3l1.2-0.8
				l0.8,1.2c1.7,2.5,1,5.9-1.6,7.6l-0.7,0.4c0.7-1.5,1.2-3.1,1.6-4.7c0.1-0.3,0.1-0.9-0.3-0.6c-0.4,0.2-0.6,1.3-0.7,1.7
				c-0.3,1.2-0.8,2.4-1.4,3.4l-0.5-0.7C60.5,23.4,61.2,20,63.8,18.3z M46.7,20h1.4c3,0,5.5,2.5,5.5,5.5v0.8
				c-0.9-1.4-1.9-2.7-3.1-3.9c-0.2-0.2-0.6-0.6-0.7-0.1c0,0.5,0.8,1.3,1.1,1.6c0.9,0.9,1.6,1.9,2.1,3.1h-0.8c-3,0-5.5-2.5-5.5-5.5
				V20z M31.7,70.3c-1.8,2.5-5.2,3.1-7.7,1.3l-1.2-0.8l0.8-1.2c1.8-2.5,5.2-3.1,7.7-1.3l0.7,0.5c-1.6-0.1-3.3,0-4.9,0.2
				c-0.3,0.1-0.9,0.2-0.5,0.5c0.4,0.3,1.5,0.1,1.9,0c1.3-0.2,2.5-0.2,3.7,0.1L31.7,70.3z M45.7,80.2l0.8-0.1c-1.3,1-2.5,2.1-3.6,3.4
				c-0.2,0.3-0.5,0.7,0,0.7c0.5,0,1.2-0.9,1.5-1.2c0.8-1,1.8-1.7,2.9-2.3l0.1,0.8c0.3,3-2,5.7-5,5.9l-1.4,0.1l-0.1-1.4
				C40.5,83.1,42.7,80.5,45.7,80.2z M33.6,77c0.9-2.9,4-4.5,6.9-3.5l0.8,0.2c-1.6,0.4-3.2,1-4.6,1.7c-0.3,0.2-0.8,0.4-0.3,0.6
				c0.4,0.2,1.4-0.3,1.8-0.5c1.1-0.6,2.3-0.9,3.6-1l-0.3,0.8c-0.9,2.9-4,4.5-6.9,3.5l-1.4-0.4L33.6,77z M36.4,60l-0.2,0.8
				c-0.5-1.6-1.3-3-2.2-4.4c-0.2-0.3-0.5-0.7-0.6-0.2c-0.1,0.5,0.5,1.4,0.7,1.7c0.7,1.1,1.1,2.2,1.4,3.4l-0.8-0.2
				c-3-0.6-4.9-3.5-4.3-6.5l0.3-1.4l1.4,0.3C35.1,54.2,37,57.1,36.4,60z M41.2,35.5l1.1-0.9c2.4-1.8,5.9-1.4,7.7,1l0.5,0.6
				c-1.5-0.6-3.1-1-4.8-1.2c-0.3,0-0.9-0.1-0.6,0.3c0.3,0.4,1.4,0.6,1.8,0.6c1.3,0.2,2.4,0.6,3.5,1.2l-0.7,0.5
				c-2.4,1.8-5.9,1.4-7.7-1L41.2,35.5z M43.9,52.4l-1.4,0.1l-0.1-1.4c-0.3-3,2-5.7,5-5.9l0.8-0.1c-1.3,1-2.5,2.1-3.6,3.4
				c-0.2,0.3-0.5,0.7,0,0.7c0.5,0,1.2-0.9,1.5-1.2c0.8-1,1.8-1.7,2.9-2.3l0.1,0.8C49.2,49.5,47,52.2,43.9,52.4z M51.1,59.7l-0.8,0
				c1.4-0.9,2.6-2,3.8-3.2c0.2-0.3,0.6-0.7,0.1-0.7c-0.5,0-1.2,0.8-1.5,1.1c-0.9,0.9-1.9,1.7-3,2.2l0-0.8c-0.1-3,2.2-5.6,5.2-5.7
				l1.4-0.1l0.1,1.4C56.5,57,54.2,59.5,51.1,59.7z"/>
		</defs>
		<clipPath id="SVGID_2_">
			<use xlink:href="#SVGID_1_"  style="overflow:visible;"/>
		</clipPath>
		<g transform="matrix(1 0 0 1 7.629395e-06 0)" style="clip-path:url(#SVGID_2_);">
			
				<image style="overflow:visible;" width="476" height="640" xlink:href="../../../문제 파일/A모듈 선수제공파일/갤러리 이미지/6.jpg"  transform="matrix(0.5569 0 0 0.5569 -75.6376 -65.0409)">
			</image>
		</g>
	</g>
	<path class="st0" d="M52.8,45.2c-1.6,0-1.6-2.4,0-2.4c3,0,6,0,9,0c-2.8-3.3-5.1-7-6.5-11.2c-0.5-1.5,1.8-2.1,2.4-0.7
		c0.9,2.5,2.1,4.9,3.6,7.1c1.4-1.8,2.8-3.6,4.3-5.3c1.1-1.2,2.8,0.6,1.7,1.7c-1.6,1.8-3.2,3.7-4.6,5.7c5.6,7.2,14,12.5,22.2,16.2
		V21.7c0-1.7-1.1-3.3-2.7-3.9l-0.3-0.1c-24.7-9.5-37.9-9.5-62.7,0l-0.6,0.2c-1.5,0.6-2.4,2-2.4,3.5v78.9c0,2.1,2,3.5,3.9,2.9
		l6.2-1.9c20.4-6.2,30-6.2,50.4,0h0c5.1,1.5,8.1-2.3,8.1-7.6V72.3c-0.1,0-0.2,0.1-0.4,0.1c-7.6,0.5-15.9,1-24.1,0.5
		c-1.5,3.9-6.4,5.4-10.1,6.4c-1.5,0.4-2.2-2-0.7-2.4c2.6-0.7,6.6-1.7,8.2-4.2c-8.5-0.7-16.7-2.4-24-6c-1.4-0.7-0.2-2.8,1.2-2.1
		c3.6,1.8,7.5,3.1,11.5,4c-0.8-2.8-1.7-5.5-2.4-8.3c-0.4-1.5,1.9-2.2,2.4-0.7c0.9,3.2,1.8,6.4,2.8,9.5c11.5,2.2,24.2,1.6,35.2,0.8
		c0.1,0,0.2,0,0.4,0V58.9c-7.4-3.3-15-7.8-20.8-13.7C60.3,45.2,56.5,45.2,52.8,45.2z M71.2,30.6c0.5-3,3.4-5,6.4-4.4l1.4,0.3
		l-0.3,1.4c-0.5,3-3.4,5-6.4,4.4l-0.8-0.1c1.5-0.6,3-1.4,4.4-2.3c0.3-0.2,0.7-0.5,0.2-0.7c-0.5-0.1-1.4,0.5-1.7,0.7
		c-1,0.7-2.2,1.2-3.4,1.5L71.2,30.6z M73,41.5c-1-0.8-1.7-1.8-2.4-2.9l0.8-0.1c3-0.3,5.7,1.9,6,5l0.1,1.4l-1.4,0.1
		c-3,0.3-5.7-1.9-6-5l-0.1-0.8c1,1.3,2.1,2.5,3.4,3.6c0.3,0.2,0.7,0.5,0.7,0C74.2,42.5,73.3,41.8,73,41.5z M63.8,18.3l1.2-0.8
		l0.8,1.2c1.7,2.5,1,5.9-1.6,7.6l-0.7,0.4c0.7-1.5,1.2-3.1,1.6-4.7c0.1-0.3,0.1-0.9-0.3-0.6c-0.4,0.2-0.6,1.3-0.7,1.7
		c-0.3,1.2-0.8,2.4-1.4,3.4l-0.5-0.7C60.5,23.4,61.2,20,63.8,18.3z M46.7,20h1.4c3,0,5.5,2.5,5.5,5.5v0.8c-0.9-1.4-1.9-2.7-3.1-3.9
		c-0.2-0.2-0.6-0.6-0.7-0.1c0,0.5,0.8,1.3,1.1,1.6c0.9,0.9,1.6,1.9,2.1,3.1h-0.8c-3,0-5.5-2.5-5.5-5.5V20z M31.7,70.3
		c-1.8,2.5-5.2,3.1-7.7,1.3l-1.2-0.8l0.8-1.2c1.8-2.5,5.2-3.1,7.7-1.3l0.7,0.5c-1.6-0.1-3.3,0-4.9,0.2c-0.3,0.1-0.9,0.2-0.5,0.5
		c0.4,0.3,1.5,0.1,1.9,0c1.3-0.2,2.5-0.2,3.7,0.1L31.7,70.3z M45.7,80.2l0.8-0.1c-1.3,1-2.5,2.1-3.6,3.4c-0.2,0.3-0.5,0.7,0,0.7
		c0.5,0,1.2-0.9,1.5-1.2c0.8-1,1.8-1.7,2.9-2.3l0.1,0.8c0.3,3-2,5.7-5,5.9l-1.4,0.1l-0.1-1.4C40.5,83.1,42.7,80.5,45.7,80.2z
		 M33.6,77c0.9-2.9,4-4.5,6.9-3.5l0.8,0.2c-1.6,0.4-3.2,1-4.6,1.7c-0.3,0.2-0.8,0.4-0.3,0.6c0.4,0.2,1.4-0.3,1.8-0.5
		c1.1-0.6,2.3-0.9,3.6-1l-0.3,0.8c-0.9,2.9-4,4.5-6.9,3.5l-1.4-0.4L33.6,77z M36.4,60l-0.2,0.8c-0.5-1.6-1.3-3-2.2-4.4
		c-0.2-0.3-0.5-0.7-0.6-0.2c-0.1,0.5,0.5,1.4,0.7,1.7c0.7,1.1,1.1,2.2,1.4,3.4l-0.8-0.2c-3-0.6-4.9-3.5-4.3-6.5l0.3-1.4l1.4,0.3
		C35.1,54.2,37,57.1,36.4,60z M41.2,35.5l1.1-0.9c2.4-1.8,5.9-1.4,7.7,1l0.5,0.6c-1.5-0.6-3.1-1-4.8-1.2c-0.3,0-0.9-0.1-0.6,0.3
		c0.3,0.4,1.4,0.6,1.8,0.6c1.3,0.2,2.4,0.6,3.5,1.2l-0.7,0.5c-2.4,1.8-5.9,1.4-7.7-1L41.2,35.5z M43.9,52.4l-1.4,0.1l-0.1-1.4
		c-0.3-3,2-5.7,5-5.9l0.8-0.1c-1.3,1-2.5,2.1-3.6,3.4c-0.2,0.3-0.5,0.7,0,0.7c0.5,0,1.2-0.9,1.5-1.2c0.8-1,1.8-1.7,2.9-2.3l0.1,0.8
		C49.2,49.5,47,52.2,43.9,52.4z M51.1,59.7l-0.8,0c1.4-0.9,2.6-2,3.8-3.2c0.2-0.3,0.6-0.7,0.1-0.7c-0.5,0-1.2,0.8-1.5,1.1
		c-0.9,0.9-1.9,1.7-3,2.2l0-0.8c-0.1-3,2.2-5.6,5.2-5.7l1.4-0.1l0.1,1.4C56.5,57,54.2,59.5,51.1,59.7z"/>
	<g>
		<defs>
			<path id="SVGID_3_" d="M159.8,17.9l-0.6-0.2c-24.8-9.5-38.1-9.5-62.9,0L96,17.8c-1.6,0.6-2.7,2.2-2.7,3.9v34.8
				c8.4-3.8,17-9.1,22.7-16.5c-1.4-2-2.9-3.9-4.6-5.7c-1.1-1.2,0.7-2.9,1.7-1.7c1.5,1.7,3,3.5,4.3,5.3c1.5-2.2,2.7-4.5,3.6-7.1
				c0.5-1.5,2.9-0.8,2.4,0.7c-1.5,4.2-3.7,7.9-6.5,11.2c3,0,6,0,9,0c1.6,0,1.6,2.4,0,2.4c-3.7,0-7.5,0-11.2,0
				c-5.9,6-13.4,10.5-20.9,13.8C93.6,59,93.5,59,93.3,59v11.3c0.2-0.2,0.5-0.4,0.9-0.4c11,0.8,23.6,1.4,35.2-0.8
				c1-3.2,1.9-6.3,2.8-9.5c0.4-1.5,2.8-0.9,2.4,0.7c-0.8,2.8-1.6,5.6-2.4,8.3c4-0.9,7.9-2.2,11.5-4.1c1.4-0.7,2.6,1.4,1.2,2.1
				c-7.2,3.6-15.5,5.4-24,6c1.5,2.5,5.6,3.5,8.2,4.2c1.5,0.4,0.9,2.8-0.7,2.4c-3.7-1-8.6-2.5-10.1-6.4c-8.2,0.5-16.5,0.1-24.1-0.5
				c-0.4,0-0.7-0.2-0.9-0.5v21.8c0,5.3,3.1,9.1,8.2,7.6c20.5-6.2,30.1-6.2,50.6,0l6.2,1.9c2,0.6,3.9-0.9,3.9-2.9V21.4
				C162.3,19.9,161.3,18.5,159.8,17.9z M99.6,26.4l1.4-0.3c3-0.5,5.8,1.4,6.4,4.4l0.2,0.8c-1.2-0.3-2.3-0.8-3.4-1.5
				c-0.4-0.2-1.3-0.9-1.7-0.7c-0.5,0.1-0.1,0.5,0.2,0.7c1.4,0.9,2.8,1.7,4.4,2.3l-0.8,0.1c-3,0.5-5.8-1.4-6.4-4.4L99.6,26.4z
				 M108.5,40.2c-0.3,3-3,5.2-6,5l-1.4-0.1l0.1-1.4c0.3-3,3-5.2,6-5l0.8,0.1c-0.6,1.1-1.4,2-2.4,2.9c-0.3,0.3-1.2,1-1.2,1.5
				c0,0.5,0.4,0.2,0.7,0c1.3-1.1,2.4-2.3,3.4-3.6L108.5,40.2z M116.5,25.9l-0.5,0.7c-0.7-1.1-1.1-2.2-1.4-3.4
				c-0.1-0.4-0.3-1.5-0.7-1.7c-0.4-0.2-0.4,0.3-0.3,0.6c0.3,1.6,0.9,3.2,1.6,4.7l-0.7-0.4c-2.5-1.7-3.2-5.1-1.6-7.6l0.8-1.2l1.2,0.8
				C117.4,20,118.1,23.4,116.5,25.9z M126.5,27h-0.8c0.5-1.1,1.2-2.2,2.1-3.1c0.3-0.3,1.1-1.1,1.1-1.6c0-0.5-0.4-0.2-0.7,0.1
				c-1.2,1.2-2.2,2.5-3.1,3.9v-0.8c0-3,2.5-5.5,5.5-5.5h1.4v1.4C132,24.5,129.6,27,126.5,27z M129,59.1c-1.1-0.6-2.1-1.3-3-2.2
				c-0.3-0.3-1-1.1-1.5-1.1c-0.5,0-0.2,0.4,0.1,0.7c1.1,1.2,2.4,2.3,3.8,3.2l-0.8,0c-3-0.1-5.4-2.7-5.2-5.7l0.1-1.4l1.4,0.1
				c3,0.1,5.4,2.7,5.2,5.7L129,59.1z M136.2,52.5l-1.4-0.1c-3-0.3-5.3-2.9-5-5.9l0.1-0.8c1.1,0.6,2.1,1.4,2.9,2.3
				c0.3,0.3,1,1.2,1.5,1.2c0.5,0,0.2-0.4,0-0.7c-1.1-1.3-2.3-2.4-3.6-3.4l0.8,0.1c3,0.3,5.3,2.9,5,5.9L136.2,52.5z M136.6,36.6
				c-1.8,2.4-5.3,2.9-7.7,1l-0.7-0.5c1.1-0.6,2.3-1,3.5-1.2c0.4-0.1,1.5-0.2,1.8-0.6c0.3-0.4-0.3-0.4-0.6-0.3
				c-1.6,0.2-3.3,0.6-4.8,1.2l0.5-0.6c1.8-2.4,5.3-2.9,7.7-1l1.1,0.9L136.6,36.6z M144,61.2l-0.8,0.2c0.3-1.2,0.7-2.4,1.4-3.4
				c0.2-0.4,0.8-1.3,0.7-1.7c-0.1-0.5-0.5-0.1-0.6,0.2c-0.9,1.4-1.7,2.9-2.2,4.4l-0.2-0.8c-0.6-3,1.3-5.9,4.3-6.5l1.4-0.3l0.3,1.4
				C148.9,57.6,147,60.5,144,61.2z M137.8,87.6l-1.4-0.1c-3-0.3-5.3-2.9-5-5.9l0.1-0.8c1.1,0.6,2.1,1.4,2.9,2.3
				c0.3,0.3,1,1.2,1.5,1.2c0.5,0,0.2-0.4,0-0.7c-1.1-1.3-2.3-2.4-3.6-3.4l0.8,0.1c3,0.3,5.3,2.9,5,5.9L137.8,87.6z M144.2,78.8
				c-2.9,0.9-6-0.7-6.9-3.5l-0.3-0.8c1.2,0.2,2.4,0.5,3.6,1c0.4,0.2,1.4,0.7,1.8,0.5c0.5-0.2,0-0.5-0.3-0.6c-1.5-0.8-3-1.3-4.6-1.7
				l0.8-0.2c2.9-0.9,6,0.7,6.9,3.5l0.4,1.4L144.2,78.8z M154.6,71.7c-2.5,1.8-5.9,1.2-7.7-1.3l-0.5-0.7c1.2-0.2,2.5-0.3,3.7-0.1
				c0.4,0.1,1.5,0.3,1.9,0c0.4-0.3-0.1-0.4-0.5-0.5c-1.6-0.3-3.3-0.4-4.9-0.2l0.7-0.5c2.5-1.8,5.9-1.2,7.7,1.3l0.8,1.2L154.6,71.7z"
				/>
		</defs>
		<clipPath id="SVGID_4_">
			<use xlink:href="#SVGID_3_"  style="overflow:visible;"/>
		</clipPath>
		<g style="clip-path:url(#SVGID_4_);">
			
				<image style="overflow:visible;" width="476" height="640" xlink:href="../../../문제 파일/A모듈 선수제공파일/갤러리 이미지/6.jpg"  transform="matrix(0.5569 0 0 0.5569 -56.4259 -70.3311)">
			</image>
		</g>
	</g>
	<path class="st1" d="M159.7,17.9l-0.6-0.2c-24.8-9.5-38.1-9.5-62.9,0l-0.3,0.1c-1.6,0.6-2.7,2.2-2.7,3.9v34.8
		c8.4-3.8,17-9.1,22.7-16.5c-1.4-2-2.9-3.9-4.6-5.7c-1.1-1.2,0.7-2.9,1.7-1.7c1.5,1.7,3,3.5,4.3,5.3c1.5-2.2,2.7-4.5,3.6-7.1
		c0.5-1.5,2.9-0.8,2.4,0.7c-1.5,4.2-3.7,7.9-6.5,11.2c3,0,6,0,9,0c1.6,0,1.6,2.4,0,2.4c-3.7,0-7.5,0-11.2,0
		c-5.9,6-13.4,10.5-20.9,13.8C93.4,59,93.3,59,93.2,59v11.3c0.2-0.2,0.5-0.4,0.9-0.4c11,0.8,23.6,1.4,35.2-0.8
		c1-3.2,1.9-6.3,2.8-9.5c0.4-1.5,2.8-0.9,2.4,0.7c-0.8,2.8-1.6,5.6-2.4,8.3c4-0.9,7.9-2.2,11.5-4.1c1.4-0.7,2.6,1.4,1.2,2.1
		c-7.2,3.6-15.5,5.4-24,6c1.5,2.5,5.6,3.5,8.2,4.2c1.5,0.4,0.9,2.8-0.7,2.4c-3.7-1-8.6-2.5-10.1-6.4c-8.2,0.5-16.5,0.1-24.1-0.5
		c-0.4,0-0.7-0.2-0.9-0.5v21.8c0,5.3,3.1,9.1,8.2,7.6c20.5-6.2,30.1-6.2,50.6,0l6.2,1.9c2,0.6,3.9-0.9,3.9-2.9V21.4
		C162.1,19.9,161.1,18.5,159.7,17.9z M99.5,26.4l1.4-0.3c3-0.5,5.8,1.4,6.4,4.4l0.2,0.8c-1.2-0.3-2.3-0.8-3.4-1.5
		c-0.4-0.2-1.3-0.9-1.7-0.7c-0.5,0.1-0.1,0.5,0.2,0.7c1.4,0.9,2.8,1.7,4.4,2.3l-0.8,0.1c-3,0.5-5.8-1.4-6.4-4.4L99.5,26.4z
		 M108.4,40.2c-0.3,3-3,5.2-6,5L101,45l0.1-1.4c0.3-3,3-5.2,6-5l0.8,0.1c-0.6,1.1-1.4,2-2.4,2.9c-0.3,0.3-1.2,1-1.2,1.5
		c0,0.5,0.4,0.2,0.7,0c1.3-1.1,2.4-2.3,3.4-3.6L108.4,40.2z M116.3,25.9l-0.5,0.7c-0.7-1.1-1.1-2.2-1.4-3.4
		c-0.1-0.4-0.3-1.5-0.7-1.7c-0.4-0.2-0.4,0.3-0.3,0.6c0.3,1.6,0.9,3.2,1.6,4.7l-0.7-0.4c-2.5-1.7-3.2-5.1-1.6-7.6l0.8-1.2l1.2,0.8
		C117.3,20,118,23.4,116.3,25.9z M126.4,27h-0.8c0.5-1.1,1.2-2.2,2.1-3.1c0.3-0.3,1.1-1.1,1.1-1.6c0-0.5-0.4-0.2-0.7,0.1
		c-1.2,1.2-2.2,2.5-3.1,3.9v-0.8c0-3,2.5-5.5,5.5-5.5h1.4v1.4C131.8,24.5,129.4,27,126.4,27z M128.9,59.1c-1.1-0.6-2.1-1.3-3-2.2
		c-0.3-0.3-1-1.1-1.5-1.1c-0.5,0-0.2,0.4,0.1,0.7c1.1,1.2,2.4,2.3,3.8,3.2l-0.8,0c-3-0.1-5.4-2.7-5.2-5.7l0.1-1.4l1.4,0.1
		c3,0.1,5.4,2.7,5.2,5.7L128.9,59.1z M136,52.5l-1.4-0.1c-3-0.3-5.3-2.9-5-5.9l0.1-0.8c1.1,0.6,2.1,1.4,2.9,2.3
		c0.3,0.3,1,1.2,1.5,1.2c0.5,0,0.2-0.4,0-0.7c-1.1-1.3-2.3-2.4-3.6-3.4l0.8,0.1c3,0.3,5.3,2.9,5,5.9L136,52.5z M136.4,36.6
		c-1.8,2.4-5.3,2.9-7.7,1l-0.7-0.5c1.1-0.6,2.3-1,3.5-1.2c0.4-0.1,1.5-0.2,1.8-0.6c0.3-0.4-0.3-0.4-0.6-0.3
		c-1.6,0.2-3.3,0.6-4.8,1.2l0.5-0.6c1.8-2.4,5.3-2.9,7.7-1l1.1,0.9L136.4,36.6z M143.8,61.2l-0.8,0.2c0.3-1.2,0.7-2.4,1.4-3.4
		c0.2-0.4,0.8-1.3,0.7-1.7c-0.1-0.5-0.5-0.1-0.6,0.2c-0.9,1.4-1.7,2.9-2.2,4.4l-0.2-0.8c-0.6-3,1.3-5.9,4.3-6.5l1.4-0.3l0.3,1.4
		C148.7,57.6,146.8,60.5,143.8,61.2z M137.6,87.6l-1.4-0.1c-3-0.3-5.3-2.9-5-5.9l0.1-0.8c1.1,0.6,2.1,1.4,2.9,2.3
		c0.3,0.3,1,1.2,1.5,1.2c0.5,0,0.2-0.4,0-0.7c-1.1-1.3-2.3-2.4-3.6-3.4l0.8,0.1c3,0.3,5.3,2.9,5,5.9L137.6,87.6z M144,78.8
		c-2.9,0.9-6-0.7-6.9-3.5l-0.3-0.8c1.2,0.2,2.4,0.5,3.6,1c0.4,0.2,1.4,0.7,1.8,0.5c0.5-0.2,0-0.5-0.3-0.6c-1.5-0.8-3-1.3-4.6-1.7
		l0.8-0.2c2.9-0.9,6,0.7,6.9,3.5l0.4,1.4L144,78.8z M154.5,71.7c-2.5,1.8-5.9,1.2-7.7-1.3l-0.5-0.7c1.2-0.2,2.5-0.3,3.7-0.1
		c0.4,0.1,1.5,0.3,1.9,0c0.4-0.3-0.1-0.4-0.5-0.5c-1.6-0.3-3.3-0.4-4.9-0.2l0.7-0.5c2.5-1.8,5.9-1.2,7.7,1.3l0.8,1.2L154.5,71.7z"/>
</g>
<g class="st2">
	<path class="st3" d="M205,34.5c-2.5-1.2-4.4-2.9-5.8-4.9c-0.5,1-1.3,2.1-2.5,3.3c-1.2,1.2-2.3,2-3.4,2.6l-2.4-2.4
		c1.8-0.7,3.4-1.8,4.6-3.4s1.9-3.2,1.9-4.8v-1.5H192v-2.8h14.1v2.8h-5.3v1.4c0,1.6,0.6,3,1.8,4.3c1.2,1.3,2.7,2.3,4.6,2.9L205,34.5z
		 M196.4,44.4v-8.8h3.4v5.9h14v2.9H196.4z M210.2,37.8v-9.3h-5.1v-2.7h5.1V19h3.3v18.8H210.2z"/>
	<path class="st3" d="M232.8,35.1v10.1h-3.4V35.1h-10.4v-2.9h24.3v2.9H232.8z M240.6,30.5c-4.1-0.8-7.3-2.5-9.5-4.9
		c-0.8,1-2.1,2-3.9,3s-3.7,1.6-5.5,2l-2.1-2.6c2.2-0.2,4.2-0.7,6-1.7s3-2.1,3.5-3.4h-7.5V20h19v2.9H233c0.5,1.2,1.6,2.3,3.3,3.2
		c1.7,0.9,3.8,1.5,6.1,1.8L240.6,30.5z"/>
</g>
<g>
	<path class="st4" d="M205.5,83.5c-3.3,0-5.9-0.8-7.9-2.3c-2-1.5-3-3.4-3-5.7c0-2.3,1-4.2,3-5.7c2-1.5,4.6-2.3,7.9-2.3s6,0.8,8,2.3
		c2,1.5,3,3.4,3,5.7c0,2.3-1,4.2-3,5.7C211.5,82.7,208.8,83.5,205.5,83.5z M199,97.9V85.4h5.5v7.8h22.8v4.6H199z M205.5,72
		c-1.7,0-3,0.3-4,0.9c-0.9,0.6-1.4,1.5-1.4,2.5c0,1.1,0.5,1.9,1.4,2.6c0.9,0.6,2.3,1,4,1c1.8,0,3.2-0.3,4.1-1
		c0.9-0.6,1.4-1.5,1.4-2.6c0-1.1-0.5-1.9-1.4-2.5C208.6,72.3,207.3,72,205.5,72z M226.1,75.5v12.1h-5.4V57h5.4v13.9h6.4v4.6H226.1z"
		/>
	<path class="st4" d="M259.5,88.8c-4.1-2.9-7.2-6.3-9.5-10.2c-2.9,5.1-6,8.8-9.4,11l-4-3.5c2.7-1.3,5.1-3.6,7.4-6.8
		c2.2-3.2,3.3-6.4,3.3-9.6v-4.5h-9.1v-4.6h23.5v4.6h-8.9v4.3c0,3,1.1,5.9,3.2,8.8c2.1,2.9,4.5,5,7.3,6.4L259.5,88.8z M266.8,99.2V57
		h5.4v42.2H266.8z"/>
	<path class="st4" d="M304.5,82.1v8.2H299v-8.2h-17.2v-4.6h39.1v4.6H304.5z M287.5,97.7V85.1h5.5v8.1h22.7v4.6H287.5z M287.6,73.8
		v-15h27.3v15H287.6z M309.5,63.3h-16.4v5.9h16.4V63.3z"/>
	<path class="st4" d="M354.3,92.4c-7.8,0.5-17.4,0.7-29,0.7l-0.5-4.6l12-0.1v-4.3c-2.6-0.4-4.6-1.4-6-2.8c-1.4-1.4-2.2-3.2-2.2-5.3
		c0-2.4,1-4.4,3-6c2-1.6,4.7-2.3,8-2.3c3.4,0,6,0.7,8,2.2s2.9,3.4,2.9,5.9c0,2-0.7,3.8-2.1,5.3c-1.4,1.5-3.4,2.5-6,2.9v4.2
		c6-0.1,9.8-0.3,11.6-0.5L354.3,92.4z M326.5,66.3v-4.6h10.3v-5h5.5v5h10.3v4.6H326.5z M339.6,72.3c-1.6,0-3,0.4-4,1.1
		c-1,0.7-1.5,1.7-1.5,2.7c0,1.1,0.5,2,1.5,2.7c1,0.7,2.3,1.1,4,1.1c1.7,0,3-0.4,4-1.1c1-0.7,1.4-1.6,1.4-2.7c0-1.1-0.5-2.1-1.4-2.8
		C342.7,72.7,341.4,72.3,339.6,72.3z M361.3,79.6v19.6h-5.5V57h5.5v18h6.3v4.6H361.3z"/>
	<path class="st4" d="M399.1,99.2v-9.8h-22.7v-4.6H388V81h-16.8v-4.7h39.1V81h-16.8v3.8h11.1v14.4H399.1z M406.4,74.3
		c-2.9-0.2-5.9-1-8.9-2.1c-3-1.2-5.2-2.5-6.6-3.9c-1.3,1.4-3.5,2.7-6.6,3.9s-6.1,1.9-9.2,2.2l-2.9-4.3c3.3,0,6.4-0.5,9.3-1.5
		c2.8-1,4.8-2.3,5.9-3.8h-11.8v-4.5h12.5v-3.8h5.5v3.8h12.5v4.5h-11.8c1.1,1.5,3.1,2.8,5.9,3.8c2.8,1,5.8,1.5,8.9,1.5L406.4,74.3z"
		/>
	<path class="st4" d="M433.6,88.5c-1.2-0.9-2.5-2.2-4-4c-1.5-1.8-2.5-3.3-3-4.5c-0.6,1.5-1.7,3.3-3.2,5.3c-1.6,2-3,3.5-4.4,4.6
		l-4-3.4c2.9-1.9,5.1-4.3,6.7-7.2c1.6-2.9,2.3-6,2.3-9.4v-4.7h-7.3v-4.6h19v4.6h-6.4v5.1c0,2.9,0.7,5.7,2.2,8.2
		c1.4,2.5,3.4,4.7,5.9,6.4L433.6,88.5z M438.7,98V75.4h-5.8v-4.4h5.8v-13h5.4V98H438.7z M447.3,99.2V57h5.4v42.2H447.3z"/>
	<polygon class="st4" points="192.8,64.8 192.8,60.4 202.9,60.4 202.9,55.7 208.4,55.7 208.4,60.4 218.6,60.4 218.6,64.8 	"/>
</g>
</svg>
