<?xml version="1.0" encoding="utf-8"?>
<!-- Generator: Adobe Illustrator 21.0.0, SVG Export Plug-In . SVG Version: 6.00 Build 0)  -->
<svg version="1.1" id="Layer_1" xmlns="http://www.w3.org/2000/svg" xmlns:xlink="http://www.w3.org/1999/xlink" x="0px" y="0px"
	 viewBox="0 0 493.3 126.5" style="enable-background:new 0 0 493.3 126.5;" xml:space="preserve">
<style type="text/css">
	.st0{opacity:0.7;fill:#CB705A;}
	.st1{opacity:0.7;fill:#DBBD6A;}
	.st2{opacity:0.7;}
	.st3{fill:#EAE0DF;}
	.st4{fill:#F7F7F7;}
	.st5{opacity:0.7;fill:#F7F7F7;}
</style>
<g>
	<g>
		<defs>
			<path id="SVGID_1_" d="M57.8,55.2c-1.6,0-1.6-2.4,0-2.4c3,0,6,0,9,0c-2.8-3.3-5.1-7-6.5-11.2c-0.5-1.5,1.8-2.1,2.4-0.7
				c0.9,2.5,2.1,4.9,3.6,7.1c1.4-1.8,2.8-3.6,4.3-5.3c1.1-1.2,2.8,0.6,1.7,1.7c-1.6,1.8-3.2,3.7-4.6,5.7c5.6,7.2,14,12.5,22.2,16.2
				V31.7c0-1.7-1.1-3.3-2.7-3.9l-0.3-0.1c-24.7-9.5-37.9-9.5-62.7,0l-0.6,0.2c-1.5,0.6-2.4,2-2.4,3.5v78.9c0,2.1,2,3.5,3.9,2.9
				l6.2-1.9c20.4-6.2,30-6.2,50.4,0h0c5.1,1.5,8.1-2.3,8.1-7.6V82.3c-0.1,0-0.2,0.1-0.4,0.1c-7.6,0.5-15.9,1-24.1,0.5
				c-1.5,3.9-6.4,5.4-10.1,6.4c-1.5,0.4-2.2-2-0.7-2.4c2.6-0.7,6.6-1.7,8.2-4.2c-8.5-0.7-16.7-2.4-24-6c-1.4-0.7-0.2-2.8,1.2-2.1
				c3.6,1.8,7.5,3.1,11.5,4c-0.8-2.8-1.7-5.5-2.4-8.3c-0.4-1.5,1.9-2.2,2.4-0.7c0.9,3.2,1.8,6.4,2.8,9.5c11.5,2.2,24.2,1.6,35.2,0.8
				c0.1,0,0.2,0,0.4,0V68.9c-7.4-3.3-15-7.8-20.8-13.7C65.3,55.2,61.5,55.2,57.8,55.2z M76.2,40.6c0.5-3,3.4-5,6.4-4.4l1.4,0.3
				l-0.3,1.4c-0.5,3-3.4,5-6.4,4.4l-0.8-0.1c1.5-0.6,3-1.4,4.4-2.3c0.3-0.2,0.7-0.5,0.2-0.7c-0.5-0.1-1.4,0.5-1.7,0.7
				c-1,0.7-2.2,1.2-3.4,1.5L76.2,40.6z M78,51.5c-1-0.8-1.7-1.8-2.4-2.9l0.8-0.1c3-0.3,5.7,1.9,6,5l0.1,1.4l-1.4,0.1
				c-3,0.3-5.7-1.9-6-5l-0.1-0.8c1,1.3,2.1,2.5,3.4,3.6c0.3,0.2,0.7,0.5,0.7,0C79.2,52.5,78.3,51.8,78,51.5z M68.8,28.3l1.2-0.8
				l0.8,1.2c1.7,2.5,1,5.9-1.6,7.6l-0.7,0.4c0.7-1.5,1.2-3.1,1.6-4.7c0.1-0.3,0.1-0.9-0.3-0.6c-0.4,0.2-0.6,1.3-0.7,1.7
				c-0.3,1.2-0.8,2.4-1.4,3.4l-0.5-0.7C65.5,33.4,66.2,30,68.8,28.3z M51.7,30h1.4c3,0,5.5,2.5,5.5,5.5v0.8
				c-0.9-1.4-1.9-2.7-3.1-3.9c-0.2-0.2-0.6-0.6-0.7-0.1c0,0.5,0.8,1.3,1.1,1.6c0.9,0.9,1.6,1.9,2.1,3.1h-0.8c-3,0-5.5-2.5-5.5-5.5
				V30z M36.7,80.3c-1.8,2.5-5.2,3.1-7.7,1.3l-1.2-0.8l0.8-1.2c1.8-2.5,5.2-3.1,7.7-1.3l0.7,0.5c-1.6-0.1-3.3,0-4.9,0.2
				c-0.3,0.1-0.9,0.2-0.5,0.5c0.4,0.3,1.5,0.1,1.9,0c1.3-0.2,2.5-0.2,3.7,0.1L36.7,80.3z M50.7,90.2l0.8-0.1c-1.3,1-2.5,2.1-3.6,3.4
				c-0.2,0.3-0.5,0.7,0,0.7c0.5,0,1.2-0.9,1.5-1.2c0.8-1,1.8-1.7,2.9-2.3l0.1,0.8c0.3,3-2,5.7-5,5.9l-1.4,0.1l-0.1-1.4
				C45.5,93.1,47.7,90.5,50.7,90.2z M38.6,87c0.9-2.9,4-4.5,6.9-3.5l0.8,0.2c-1.6,0.4-3.2,1-4.6,1.7c-0.3,0.2-0.8,0.4-0.3,0.6
				c0.4,0.2,1.4-0.3,1.8-0.5c1.1-0.6,2.3-0.9,3.6-1l-0.3,0.8c-0.9,2.9-4,4.5-6.9,3.5l-1.4-0.4L38.6,87z M41.4,70l-0.2,0.8
				c-0.5-1.6-1.3-3-2.2-4.4c-0.2-0.3-0.5-0.7-0.6-0.2c-0.1,0.5,0.5,1.4,0.7,1.7c0.7,1.1,1.1,2.2,1.4,3.4l-0.8-0.2
				c-3-0.6-4.9-3.5-4.3-6.5l0.3-1.4l1.4,0.3C40.1,64.2,42,67.1,41.4,70z M46.2,45.5l1.1-0.9c2.4-1.8,5.9-1.4,7.7,1l0.5,0.6
				c-1.5-0.6-3.1-1-4.8-1.2c-0.3,0-0.9-0.1-0.6,0.3c0.3,0.4,1.4,0.6,1.8,0.6c1.3,0.2,2.4,0.6,3.5,1.2l-0.7,0.5
				c-2.4,1.8-5.9,1.4-7.7-1L46.2,45.5z M48.9,62.4l-1.4,0.1l-0.1-1.4c-0.3-3,2-5.7,5-5.9l0.8-0.1c-1.3,1-2.5,2.1-3.6,3.4
				c-0.2,0.3-0.5,0.7,0,0.7c0.5,0,1.2-0.9,1.5-1.2c0.8-1,1.8-1.7,2.9-2.3l0.1,0.8C54.2,59.5,52,62.2,48.9,62.4z M56.1,69.7l-0.8,0
				c1.4-0.9,2.6-2,3.8-3.2c0.2-0.3,0.6-0.7,0.1-0.7c-0.5,0-1.2,0.8-1.5,1.1c-0.9,0.9-1.9,1.7-3,2.2l0-0.8c-0.1-3,2.2-5.6,5.2-5.7
				l1.4-0.1l0.1,1.4C61.5,67,59.2,69.5,56.1,69.7z"/>
		</defs>
		<clipPath id="SVGID_2_">
			<use xlink:href="#SVGID_1_"  style="overflow:visible;"/>
		</clipPath>
		<g style="clip-path:url(#SVGID_2_);">
			
				<image style="overflow:visible;" width="476" height="640" xlink:href="../../../문제 파일/A모듈 선수제공파일/갤러리 이미지/6.jpg"  transform="matrix(0.5569 0 0 0.5569 -70.6376 -55.0409)">
			</image>
		</g>
	</g>
	<path class="st0" d="M57.8,55.2c-1.6,0-1.6-2.4,0-2.4c3,0,6,0,9,0c-2.8-3.3-5.1-7-6.5-11.2c-0.5-1.5,1.8-2.1,2.4-0.7
		c0.9,2.5,2.1,4.9,3.6,7.1c1.4-1.8,2.8-3.6,4.3-5.3c1.1-1.2,2.8,0.6,1.7,1.7c-1.6,1.8-3.2,3.7-4.6,5.7c5.6,7.2,14,12.5,22.2,16.2
		V31.7c0-1.7-1.1-3.3-2.7-3.9l-0.3-0.1c-24.7-9.5-37.9-9.5-62.7,0l-0.6,0.2c-1.5,0.6-2.4,2-2.4,3.5v78.9c0,2.1,2,3.5,3.9,2.9
		l6.2-1.9c20.4-6.2,30-6.2,50.4,0h0c5.1,1.5,8.1-2.3,8.1-7.6V82.3c-0.1,0-0.2,0.1-0.4,0.1c-7.6,0.5-15.9,1-24.1,0.5
		c-1.5,3.9-6.4,5.4-10.1,6.4c-1.5,0.4-2.2-2-0.7-2.4c2.6-0.7,6.6-1.7,8.2-4.2c-8.5-0.7-16.7-2.4-24-6c-1.4-0.7-0.2-2.8,1.2-2.1
		c3.6,1.8,7.5,3.1,11.5,4c-0.8-2.8-1.7-5.5-2.4-8.3c-0.4-1.5,1.9-2.2,2.4-0.7c0.9,3.2,1.8,6.4,2.8,9.5c11.5,2.2,24.2,1.6,35.2,0.8
		c0.1,0,0.2,0,0.4,0V68.9c-7.4-3.3-15-7.8-20.8-13.7C65.3,55.2,61.5,55.2,57.8,55.2z M76.2,40.6c0.5-3,3.4-5,6.4-4.4l1.4,0.3
		l-0.3,1.4c-0.5,3-3.4,5-6.4,4.4l-0.8-0.1c1.5-0.6,3-1.4,4.4-2.3c0.3-0.2,0.7-0.5,0.2-0.7c-0.5-0.1-1.4,0.5-1.7,0.7
		c-1,0.7-2.2,1.2-3.4,1.5L76.2,40.6z M78,51.5c-1-0.8-1.7-1.8-2.4-2.9l0.8-0.1c3-0.3,5.7,1.9,6,5l0.1,1.4l-1.4,0.1
		c-3,0.3-5.7-1.9-6-5l-0.1-0.8c1,1.3,2.1,2.5,3.4,3.6c0.3,0.2,0.7,0.5,0.7,0C79.2,52.5,78.3,51.8,78,51.5z M68.8,28.3l1.2-0.8
		l0.8,1.2c1.7,2.5,1,5.9-1.6,7.6l-0.7,0.4c0.7-1.5,1.2-3.1,1.6-4.7c0.1-0.3,0.1-0.9-0.3-0.6c-0.4,0.2-0.6,1.3-0.7,1.7
		c-0.3,1.2-0.8,2.4-1.4,3.4l-0.5-0.7C65.5,33.4,66.2,30,68.8,28.3z M51.7,30h1.4c3,0,5.5,2.5,5.5,5.5v0.8c-0.9-1.4-1.9-2.7-3.1-3.9
		c-0.2-0.2-0.6-0.6-0.7-0.1c0,0.5,0.8,1.3,1.1,1.6c0.9,0.9,1.6,1.9,2.1,3.1h-0.8c-3,0-5.5-2.5-5.5-5.5V30z M36.7,80.3
		c-1.8,2.5-5.2,3.1-7.7,1.3l-1.2-0.8l0.8-1.2c1.8-2.5,5.2-3.1,7.7-1.3l0.7,0.5c-1.6-0.1-3.3,0-4.9,0.2c-0.3,0.1-0.9,0.2-0.5,0.5
		c0.4,0.3,1.5,0.1,1.9,0c1.3-0.2,2.5-0.2,3.7,0.1L36.7,80.3z M50.7,90.2l0.8-0.1c-1.3,1-2.5,2.1-3.6,3.4c-0.2,0.3-0.5,0.7,0,0.7
		c0.5,0,1.2-0.9,1.5-1.2c0.8-1,1.8-1.7,2.9-2.3l0.1,0.8c0.3,3-2,5.7-5,5.9l-1.4,0.1l-0.1-1.4C45.5,93.1,47.7,90.5,50.7,90.2z
		 M38.6,87c0.9-2.9,4-4.5,6.9-3.5l0.8,0.2c-1.6,0.4-3.2,1-4.6,1.7c-0.3,0.2-0.8,0.4-0.3,0.6c0.4,0.2,1.4-0.3,1.8-0.5
		c1.1-0.6,2.3-0.9,3.6-1l-0.3,0.8c-0.9,2.9-4,4.5-6.9,3.5l-1.4-0.4L38.6,87z M41.4,70l-0.2,0.8c-0.5-1.6-1.3-3-2.2-4.4
		c-0.2-0.3-0.5-0.7-0.6-0.2c-0.1,0.5,0.5,1.4,0.7,1.7c0.7,1.1,1.1,2.2,1.4,3.4l-0.8-0.2c-3-0.6-4.9-3.5-4.3-6.5l0.3-1.4l1.4,0.3
		C40.1,64.2,42,67.1,41.4,70z M46.2,45.5l1.1-0.9c2.4-1.8,5.9-1.4,7.7,1l0.5,0.6c-1.5-0.6-3.1-1-4.8-1.2c-0.3,0-0.9-0.1-0.6,0.3
		c0.3,0.4,1.4,0.6,1.8,0.6c1.3,0.2,2.4,0.6,3.5,1.2l-0.7,0.5c-2.4,1.8-5.9,1.4-7.7-1L46.2,45.5z M48.9,62.4l-1.4,0.1l-0.1-1.4
		c-0.3-3,2-5.7,5-5.9l0.8-0.1c-1.3,1-2.5,2.1-3.6,3.4c-0.2,0.3-0.5,0.7,0,0.7c0.5,0,1.2-0.9,1.5-1.2c0.8-1,1.8-1.7,2.9-2.3l0.1,0.8
		C54.2,59.5,52,62.2,48.9,62.4z M56.1,69.7l-0.8,0c1.4-0.9,2.6-2,3.8-3.2c0.2-0.3,0.6-0.7,0.1-0.7c-0.5,0-1.2,0.8-1.5,1.1
		c-0.9,0.9-1.9,1.7-3,2.2l0-0.8c-0.1-3,2.2-5.6,5.2-5.7l1.4-0.1l0.1,1.4C61.5,67,59.2,69.5,56.1,69.7z"/>
	<g>
		<defs>
			<path id="SVGID_3_" d="M164.8,27.9l-0.6-0.2c-24.8-9.5-38.1-9.5-62.9,0l-0.3,0.1c-1.6,0.6-2.7,2.2-2.7,3.9v34.8
				c8.4-3.8,17-9.1,22.7-16.5c-1.4-2-2.9-3.9-4.6-5.7c-1.1-1.2,0.7-2.9,1.7-1.7c1.5,1.7,3,3.5,4.3,5.3c1.5-2.2,2.7-4.5,3.6-7.1
				c0.5-1.5,2.9-0.8,2.4,0.7c-1.5,4.2-3.7,7.9-6.5,11.2c3,0,6,0,9,0c1.6,0,1.6,2.4,0,2.4c-3.7,0-7.5,0-11.2,0
				c-5.9,6-13.4,10.5-20.9,13.8C98.6,69,98.5,69,98.3,69v11.3c0.2-0.2,0.5-0.4,0.9-0.4c11,0.8,23.6,1.4,35.2-0.8
				c1-3.2,1.9-6.3,2.8-9.5c0.4-1.5,2.8-0.9,2.4,0.7c-0.8,2.8-1.6,5.6-2.4,8.3c4-0.9,7.9-2.2,11.5-4.1c1.4-0.7,2.6,1.4,1.2,2.1
				c-7.2,3.6-15.5,5.4-24,6c1.5,2.5,5.6,3.5,8.2,4.2c1.5,0.4,0.9,2.8-0.7,2.4c-3.7-1-8.6-2.5-10.1-6.4c-8.2,0.5-16.5,0.1-24.1-0.5
				c-0.4,0-0.7-0.2-0.9-0.5v21.8c0,5.3,3.1,9.1,8.2,7.6c20.5-6.2,30.1-6.2,50.6,0l6.2,1.9c2,0.6,3.9-0.9,3.9-2.9V31.4
				C167.3,29.9,166.3,28.5,164.8,27.9z M104.6,36.4l1.4-0.3c3-0.5,5.8,1.4,6.4,4.4l0.2,0.8c-1.2-0.3-2.3-0.8-3.4-1.5
				c-0.4-0.2-1.3-0.9-1.7-0.7c-0.5,0.1-0.1,0.5,0.2,0.7c1.4,0.9,2.8,1.7,4.4,2.3l-0.8,0.1c-3,0.5-5.8-1.4-6.4-4.4L104.6,36.4z
				 M113.5,50.2c-0.3,3-3,5.2-6,5l-1.4-0.1l0.1-1.4c0.3-3,3-5.2,6-5l0.8,0.1c-0.6,1.1-1.4,2-2.4,2.9c-0.3,0.3-1.2,1-1.2,1.5
				c0,0.5,0.4,0.2,0.7,0c1.3-1.1,2.4-2.3,3.4-3.6L113.5,50.2z M121.5,35.9l-0.5,0.7c-0.7-1.1-1.1-2.2-1.4-3.4
				c-0.1-0.4-0.3-1.5-0.7-1.7c-0.4-0.2-0.4,0.3-0.3,0.6c0.3,1.6,0.9,3.2,1.6,4.7l-0.7-0.4c-2.5-1.7-3.2-5.1-1.6-7.6l0.8-1.2l1.2,0.8
				C122.4,30,123.1,33.4,121.5,35.9z M131.5,37h-0.8c0.5-1.1,1.2-2.2,2.1-3.1c0.3-0.3,1.1-1.1,1.1-1.6c0-0.5-0.4-0.2-0.7,0.1
				c-1.2,1.2-2.2,2.5-3.1,3.9v-0.8c0-3,2.5-5.5,5.5-5.5h1.4v1.4C137,34.5,134.6,37,131.5,37z M134,69.1c-1.1-0.6-2.1-1.3-3-2.2
				c-0.3-0.3-1-1.1-1.5-1.1c-0.5,0-0.2,0.4,0.1,0.7c1.1,1.2,2.4,2.3,3.8,3.2l-0.8,0c-3-0.1-5.4-2.7-5.2-5.7l0.1-1.4l1.4,0.1
				c3,0.1,5.4,2.7,5.2,5.7L134,69.1z M141.2,62.5l-1.4-0.1c-3-0.3-5.3-2.9-5-5.9l0.1-0.8c1.1,0.6,2.1,1.4,2.9,2.3
				c0.3,0.3,1,1.2,1.5,1.2c0.5,0,0.2-0.4,0-0.7c-1.1-1.3-2.3-2.4-3.6-3.4l0.8,0.1c3,0.3,5.3,2.9,5,5.9L141.2,62.5z M141.6,46.6
				c-1.8,2.4-5.3,2.9-7.7,1l-0.7-0.5c1.1-0.6,2.3-1,3.5-1.2c0.4-0.1,1.5-0.2,1.8-0.6c0.3-0.4-0.3-0.4-0.6-0.3
				c-1.6,0.2-3.3,0.6-4.8,1.2l0.5-0.6c1.8-2.4,5.3-2.9,7.7-1l1.1,0.9L141.6,46.6z M149,71.2l-0.8,0.2c0.3-1.2,0.7-2.4,1.4-3.4
				c0.2-0.4,0.8-1.3,0.7-1.7c-0.1-0.5-0.5-0.1-0.6,0.2c-0.9,1.4-1.7,2.9-2.2,4.4l-0.2-0.8c-0.6-3,1.3-5.9,4.3-6.5l1.4-0.3l0.3,1.4
				C153.9,67.6,152,70.5,149,71.2z M142.8,97.6l-1.4-0.1c-3-0.3-5.3-2.9-5-5.9l0.1-0.8c1.1,0.6,2.1,1.4,2.9,2.3
				c0.3,0.3,1,1.2,1.5,1.2c0.5,0,0.2-0.4,0-0.7c-1.1-1.3-2.3-2.4-3.6-3.4l0.8,0.1c3,0.3,5.3,2.9,5,5.9L142.8,97.6z M149.2,88.8
				c-2.9,0.9-6-0.7-6.9-3.5l-0.3-0.8c1.2,0.2,2.4,0.5,3.6,1c0.4,0.2,1.4,0.7,1.8,0.5c0.5-0.2,0-0.5-0.3-0.6c-1.5-0.8-3-1.3-4.6-1.7
				l0.8-0.2c2.9-0.9,6,0.7,6.9,3.5l0.4,1.4L149.2,88.8z M159.6,81.7c-2.5,1.8-5.9,1.2-7.7-1.3l-0.5-0.7c1.2-0.2,2.5-0.3,3.7-0.1
				c0.4,0.1,1.5,0.3,1.9,0c0.4-0.3-0.1-0.4-0.5-0.5c-1.6-0.3-3.3-0.4-4.9-0.2l0.7-0.5c2.5-1.8,5.9-1.2,7.7,1.3l0.8,1.2L159.6,81.7z"
				/>
		</defs>
		<clipPath id="SVGID_4_">
			<use xlink:href="#SVGID_3_"  style="overflow:visible;"/>
		</clipPath>
		<g style="clip-path:url(#SVGID_4_);">
			
				<image style="overflow:visible;" width="476" height="640" xlink:href="../../../문제 파일/A모듈 선수제공파일/갤러리 이미지/6.jpg"  transform="matrix(0.5569 0 0 0.5569 -51.4259 -60.3311)">
			</image>
		</g>
	</g>
	<path class="st1" d="M164.7,27.9l-0.6-0.2c-24.8-9.5-38.1-9.5-62.9,0l-0.3,0.1c-1.6,0.6-2.7,2.2-2.7,3.9v34.8
		c8.4-3.8,17-9.1,22.7-16.5c-1.4-2-2.9-3.9-4.6-5.7c-1.1-1.2,0.7-2.9,1.7-1.7c1.5,1.7,3,3.5,4.3,5.3c1.5-2.2,2.7-4.5,3.6-7.1
		c0.5-1.5,2.9-0.8,2.4,0.7c-1.5,4.2-3.7,7.9-6.5,11.2c3,0,6,0,9,0c1.6,0,1.6,2.4,0,2.4c-3.7,0-7.5,0-11.2,0
		c-5.9,6-13.4,10.5-20.9,13.8C98.4,69,98.3,69,98.2,69v11.3c0.2-0.2,0.5-0.4,0.9-0.4c11,0.8,23.6,1.4,35.2-0.8
		c1-3.2,1.9-6.3,2.8-9.5c0.4-1.5,2.8-0.9,2.4,0.7c-0.8,2.8-1.6,5.6-2.4,8.3c4-0.9,7.9-2.2,11.5-4.1c1.4-0.7,2.6,1.4,1.2,2.1
		c-7.2,3.6-15.5,5.4-24,6c1.5,2.5,5.6,3.5,8.2,4.2c1.5,0.4,0.9,2.8-0.7,2.4c-3.7-1-8.6-2.5-10.1-6.4c-8.2,0.5-16.5,0.1-24.1-0.5
		c-0.4,0-0.7-0.2-0.9-0.5v21.8c0,5.3,3.1,9.1,8.2,7.6c20.5-6.2,30.1-6.2,50.6,0l6.2,1.9c2,0.6,3.9-0.9,3.9-2.9V31.4
		C167.1,29.9,166.1,28.5,164.7,27.9z M104.5,36.4l1.4-0.3c3-0.5,5.8,1.4,6.4,4.4l0.2,0.8c-1.2-0.3-2.3-0.8-3.4-1.5
		c-0.4-0.2-1.3-0.9-1.7-0.7c-0.5,0.1-0.1,0.5,0.2,0.7c1.4,0.9,2.8,1.7,4.4,2.3l-0.8,0.1c-3,0.5-5.8-1.4-6.4-4.4L104.5,36.4z
		 M113.4,50.2c-0.3,3-3,5.2-6,5L106,55l0.1-1.4c0.3-3,3-5.2,6-5l0.8,0.1c-0.6,1.1-1.4,2-2.4,2.9c-0.3,0.3-1.2,1-1.2,1.5
		c0,0.5,0.4,0.2,0.7,0c1.3-1.1,2.4-2.3,3.4-3.6L113.4,50.2z M121.3,35.9l-0.5,0.7c-0.7-1.1-1.1-2.2-1.4-3.4
		c-0.1-0.4-0.3-1.5-0.7-1.7c-0.4-0.2-0.4,0.3-0.3,0.6c0.3,1.6,0.9,3.2,1.6,4.7l-0.7-0.4c-2.5-1.7-3.2-5.1-1.6-7.6l0.8-1.2l1.2,0.8
		C122.3,30,123,33.4,121.3,35.9z M131.4,37h-0.8c0.5-1.1,1.2-2.2,2.1-3.1c0.3-0.3,1.1-1.1,1.1-1.6c0-0.5-0.4-0.2-0.7,0.1
		c-1.2,1.2-2.2,2.5-3.1,3.9v-0.8c0-3,2.5-5.5,5.5-5.5h1.4v1.4C136.8,34.5,134.4,37,131.4,37z M133.9,69.1c-1.1-0.6-2.1-1.3-3-2.2
		c-0.3-0.3-1-1.1-1.5-1.1c-0.5,0-0.2,0.4,0.1,0.7c1.1,1.2,2.4,2.3,3.8,3.2l-0.8,0c-3-0.1-5.4-2.7-5.2-5.7l0.1-1.4l1.4,0.1
		c3,0.1,5.4,2.7,5.2,5.7L133.9,69.1z M141,62.5l-1.4-0.1c-3-0.3-5.3-2.9-5-5.9l0.1-0.8c1.1,0.6,2.1,1.4,2.9,2.3
		c0.3,0.3,1,1.2,1.5,1.2c0.5,0,0.2-0.4,0-0.7c-1.1-1.3-2.3-2.4-3.6-3.4l0.8,0.1c3,0.3,5.3,2.9,5,5.9L141,62.5z M141.4,46.6
		c-1.8,2.4-5.3,2.9-7.7,1l-0.7-0.5c1.1-0.6,2.3-1,3.5-1.2c0.4-0.1,1.5-0.2,1.8-0.6c0.3-0.4-0.3-0.4-0.6-0.3
		c-1.6,0.2-3.3,0.6-4.8,1.2l0.5-0.6c1.8-2.4,5.3-2.9,7.7-1l1.1,0.9L141.4,46.6z M148.8,71.2l-0.8,0.2c0.3-1.2,0.7-2.4,1.4-3.4
		c0.2-0.4,0.8-1.3,0.7-1.7c-0.1-0.5-0.5-0.1-0.6,0.2c-0.9,1.4-1.7,2.9-2.2,4.4l-0.2-0.8c-0.6-3,1.3-5.9,4.3-6.5l1.4-0.3l0.3,1.4
		C153.7,67.6,151.8,70.5,148.8,71.2z M142.6,97.6l-1.4-0.1c-3-0.3-5.3-2.9-5-5.9l0.1-0.8c1.1,0.6,2.1,1.4,2.9,2.3
		c0.3,0.3,1,1.2,1.5,1.2c0.5,0,0.2-0.4,0-0.7c-1.1-1.3-2.3-2.4-3.6-3.4l0.8,0.1c3,0.3,5.3,2.9,5,5.9L142.6,97.6z M149,88.8
		c-2.9,0.9-6-0.7-6.9-3.5l-0.3-0.8c1.2,0.2,2.4,0.5,3.6,1c0.4,0.2,1.4,0.7,1.8,0.5c0.5-0.2,0-0.5-0.3-0.6c-1.5-0.8-3-1.3-4.6-1.7
		l0.8-0.2c2.9-0.9,6,0.7,6.9,3.5l0.4,1.4L149,88.8z M159.5,81.7c-2.5,1.8-5.9,1.2-7.7-1.3l-0.5-0.7c1.2-0.2,2.5-0.3,3.7-0.1
		c0.4,0.1,1.5,0.3,1.9,0c0.4-0.3-0.1-0.4-0.5-0.5c-1.6-0.3-3.3-0.4-4.9-0.2l0.7-0.5c2.5-1.8,5.9-1.2,7.7,1.3l0.8,1.2L159.5,81.7z"/>
</g>
<g class="st2">
	<path class="st3" d="M210,44.5c-2.5-1.2-4.4-2.9-5.8-4.9c-0.5,1-1.3,2.1-2.5,3.3c-1.2,1.2-2.3,2-3.4,2.6l-2.4-2.4
		c1.8-0.7,3.4-1.8,4.6-3.4s1.9-3.2,1.9-4.8v-1.5H197v-2.8h14.1v2.8h-5.3v1.4c0,1.6,0.6,3,1.8,4.3c1.2,1.3,2.7,2.3,4.6,2.9L210,44.5z
		 M201.4,54.4v-8.8h3.4v5.9h14v2.9H201.4z M215.2,47.8v-9.3h-5.1v-2.7h5.1V29h3.3v18.8H215.2z"/>
	<path class="st3" d="M237.8,45.1v10.1h-3.4V45.1h-10.4v-2.9h24.3v2.9H237.8z M245.6,40.5c-4.1-0.8-7.3-2.5-9.5-4.9
		c-0.8,1-2.1,2-3.9,3s-3.7,1.6-5.5,2l-2.1-2.6c2.2-0.2,4.2-0.7,6-1.7s3-2.1,3.5-3.4h-7.5V30h19v2.9H238c0.5,1.2,1.6,2.3,3.3,3.2
		c1.7,0.9,3.8,1.5,6.1,1.8L245.6,40.5z"/>
</g>
<path class="st4" d="M210.5,93.5c-3.3,0-5.9-0.8-7.9-2.3c-2-1.5-3-3.4-3-5.7c0-2.3,1-4.2,3-5.7c2-1.5,4.6-2.3,7.9-2.3s6,0.8,8,2.3
	c2,1.5,3,3.4,3,5.7c0,2.3-1,4.2-3,5.7C216.5,92.7,213.8,93.5,210.5,93.5z M204,107.9V95.4h5.5v7.8h22.8v4.6H204z M210.5,82
	c-1.7,0-3,0.3-4,0.9c-0.9,0.6-1.4,1.5-1.4,2.5c0,1.1,0.5,1.9,1.4,2.6c0.9,0.6,2.3,1,4,1c1.8,0,3.2-0.3,4.1-1
	c0.9-0.6,1.4-1.5,1.4-2.6c0-1.1-0.5-1.9-1.4-2.5C213.6,82.3,212.3,82,210.5,82z M231.1,85.5v12.1h-5.4V67h5.4v13.9h6.4v4.6H231.1z"
	/>
<path class="st4" d="M264.5,98.8c-4.1-2.9-7.2-6.3-9.5-10.2c-2.9,5.1-6,8.8-9.4,11l-4-3.5c2.7-1.3,5.1-3.6,7.4-6.8
	c2.2-3.2,3.3-6.4,3.3-9.6v-4.5h-9.1v-4.6h23.5v4.6h-8.9v4.3c0,3,1.1,5.9,3.2,8.8c2.1,2.9,4.5,5,7.3,6.4L264.5,98.8z M271.8,109.2V67
	h5.4v42.2H271.8z"/>
<path class="st4" d="M309.5,92.1v8.2H304v-8.2h-17.2v-4.6h39.1v4.6H309.5z M292.5,107.7V95.1h5.5v8.1h22.7v4.6H292.5z M292.6,83.8
	v-15h27.3v15H292.6z M314.5,73.3h-16.4v5.9h16.4V73.3z"/>
<path class="st4" d="M359.3,102.4c-7.8,0.5-17.4,0.7-29,0.7l-0.5-4.6l12-0.1v-4.3c-2.6-0.4-4.6-1.4-6-2.8c-1.4-1.4-2.2-3.2-2.2-5.3
	c0-2.4,1-4.4,3-6c2-1.6,4.7-2.3,8-2.3c3.4,0,6,0.7,8,2.2s2.9,3.4,2.9,5.9c0,2-0.7,3.8-2.1,5.3c-1.4,1.5-3.4,2.5-6,2.9v4.2
	c6-0.1,9.8-0.3,11.6-0.5L359.3,102.4z M331.5,76.3v-4.6h10.3v-5h5.5v5h10.3v4.6H331.5z M344.6,82.3c-1.6,0-3,0.4-4,1.1
	c-1,0.7-1.5,1.7-1.5,2.7c0,1.1,0.5,2,1.5,2.7c1,0.7,2.3,1.1,4,1.1c1.7,0,3-0.4,4-1.1c1-0.7,1.4-1.6,1.4-2.7c0-1.1-0.5-2.1-1.4-2.8
	C347.7,82.7,346.4,82.3,344.6,82.3z M366.3,89.6v19.6h-5.5V67h5.5v18h6.3v4.6H366.3z"/>
<path class="st4" d="M404.1,109.2v-9.8h-22.7v-4.6H393V91h-16.8v-4.7h39.1V91h-16.8v3.8h11.1v14.4H404.1z M411.4,84.3
	c-2.9-0.2-5.9-1-8.9-2.1c-3-1.2-5.2-2.5-6.6-3.9c-1.3,1.4-3.5,2.7-6.6,3.9s-6.1,1.9-9.2,2.2l-2.9-4.3c3.3,0,6.4-0.5,9.3-1.5
	c2.8-1,4.8-2.3,5.9-3.8h-11.8v-4.5h12.5v-3.8h5.5v3.8h12.5v4.5h-11.8c1.1,1.5,3.1,2.8,5.9,3.8c2.8,1,5.8,1.5,8.9,1.5L411.4,84.3z"/>
<path class="st4" d="M438.6,98.5c-1.2-0.9-2.5-2.2-4-4c-1.5-1.8-2.5-3.3-3-4.5c-0.6,1.5-1.7,3.3-3.2,5.3c-1.6,2-3,3.5-4.4,4.6
	l-4-3.4c2.9-1.9,5.1-4.3,6.7-7.2c1.6-2.9,2.3-6,2.3-9.4v-4.7h-7.3v-4.6h19v4.6h-6.4v5.1c0,2.9,0.7,5.7,2.2,8.2
	c1.4,2.5,3.4,4.7,5.9,6.4L438.6,98.5z M443.7,108V85.4h-5.8v-4.4h5.8v-13h5.4V108H443.7z M452.3,109.2V67h5.4v42.2H452.3z"/>
<polygon class="st5" points="197.8,74.8 197.8,70.4 207.9,70.4 207.9,65.7 213.4,65.7 213.4,70.4 223.6,70.4 223.6,74.8 "/>
</svg>
